<svg width="35" height="35" viewBox="0 0 35 35" fill="none" xmlns="http://www.w3.org/2000/svg">
<path d="M5.69473 30.625C5.98481 30.625 6.263 30.5098 6.46812 30.3047C6.67324 30.0995 6.78848 29.8213 6.78848 29.5313V5.46875C6.78848 5.17867 6.67324 4.90047 6.46812 4.69535C6.263 4.49023 5.98481 4.375 5.69473 4.375C5.40464 4.375 5.12644 4.49023 4.92133 4.69535C4.71621 4.90047 4.60098 5.17867 4.60098 5.46875V29.5313C4.59901 29.6754 4.62596 29.8185 4.68023 29.9521C4.73451 30.0857 4.815 30.2071 4.91695 30.309C5.01891 30.411 5.14027 30.4915 5.27385 30.5457C5.40744 30.6 5.55055 30.627 5.69473 30.625ZM10.6531 16.641C10.64 17.1492 10.7451 17.6535 10.9602 18.1141C11.1753 18.5747 11.4945 18.9791 11.8926 19.2952L25.1781 29.6348C25.6535 29.995 26.2179 30.2181 26.8114 30.2765H27.1468C27.6517 30.2891 28.1522 30.179 28.6051 29.9556C29.1445 29.6924 29.5992 29.2831 29.9176 28.7744C30.2347 28.2673 30.4015 27.6807 30.3989 27.0827V7.90563C30.3973 7.3305 30.2412 6.76638 29.9468 6.27229C29.6434 5.78113 29.2159 5.3787 28.7072 5.10563C28.2006 4.83177 27.6291 4.70068 27.0537 4.72636C26.4784 4.75205 25.9208 4.93354 25.4406 5.25146L12.1406 14.1181C11.7176 14.3967 11.3676 14.7715 11.1197 15.2119C10.858 15.6468 10.6985 16.1355 10.6531 16.641Z" fill="white"/>
</svg>
