<svg width="17" height="15" viewBox="0 0 17 15" fill="none" xmlns="http://www.w3.org/2000/svg">
<path fill-rule="evenodd" clip-rule="evenodd" d="M14.6976 1.26418C13.702 0.248799 12.5935 -0.0653185 11.5526 0.0108843C10.5398 0.0850265 9.62776 0.524354 8.9616 0.946925C8.43627 1.28017 7.68851 1.28017 7.16318 0.946927C6.49702 0.524359 5.58495 0.0850365 4.57218 0.0108959C3.53126 -0.0653054 2.42284 0.24881 1.42717 1.26418C0.251715 2.46289 -0.117073 3.94266 0.0310176 5.43949C0.177401 6.91906 0.826398 8.42313 1.69198 9.75587C2.55988 11.0922 3.66852 12.2919 4.78074 13.1631C5.86851 14.0151 7.05203 14.625 8.06242 14.625C9.0728 14.625 10.2563 14.0151 11.3441 13.1631C12.4563 12.2919 13.5649 11.0922 14.4328 9.75587C15.2984 8.42313 15.9474 6.91906 16.0938 5.43949C16.2419 3.94266 15.8731 2.46289 14.6976 1.26418ZM9.56422 1.89691C10.1533 1.52323 10.8825 1.18796 11.6348 1.13288C12.3589 1.07987 13.1394 1.28192 13.8944 2.05184C14.7968 2.97212 15.0956 4.1024 14.9743 5.32873C14.8512 6.5723 14.2938 7.90447 13.4894 9.1431C12.6872 10.3782 11.6622 11.4849 10.6504 12.2774C9.61413 13.0891 8.68334 13.5 8.06242 13.5C7.4415 13.5 6.5107 13.0891 5.47445 12.2774C4.46266 11.4849 3.43761 10.3782 2.63546 9.1431C1.83099 7.90447 1.27359 6.5723 1.15055 5.32873C1.02922 4.10241 1.328 2.97212 2.23042 2.05184C2.98539 1.28193 3.7659 1.07988 4.49004 1.13289C5.24234 1.18797 5.97148 1.52324 6.56057 1.89692C7.45376 2.4635 8.67103 2.4635 9.56422 1.89691Z" fill="#666666"/>
</svg>
