<svg width="35" height="35" viewBox="0 0 35 35" fill="none" xmlns="http://www.w3.org/2000/svg">
<path d="M29.3053 30.625C29.0152 30.625 28.737 30.5098 28.5319 30.3047C28.3268 30.0995 28.2115 29.8213 28.2115 29.5313V5.46875C28.2115 5.17867 28.3268 4.90047 28.5319 4.69535C28.737 4.49023 29.0152 4.375 29.3053 4.375C29.5954 4.375 29.8736 4.49023 30.0787 4.69535C30.2838 4.90047 30.399 5.17867 30.399 5.46875V29.5313C30.401 29.6754 30.374 29.8185 30.3198 29.9521C30.2655 30.0857 30.185 30.2071 30.083 30.309C29.9811 30.411 29.8597 30.4915 29.7261 30.5457C29.5926 30.6 29.4495 30.627 29.3053 30.625ZM24.3469 16.641C24.36 17.1492 24.2549 17.6535 24.0398 18.1141C23.8247 18.5747 23.5055 18.9791 23.1074 19.2952L9.82194 29.6348C9.34652 29.995 8.78215 30.2181 8.18861 30.2765H7.85319C7.34828 30.2891 6.84784 30.179 6.39486 29.9556C5.85548 29.6924 5.40076 29.2831 5.08236 28.7744C4.76532 28.2673 4.59845 27.6807 4.60111 27.0827V7.90563C4.60268 7.3305 4.75882 6.76638 5.05319 6.27229C5.35656 5.78113 5.78414 5.3787 6.29277 5.10563C6.79942 4.83177 7.37094 4.70068 7.94629 4.72636C8.52164 4.75205 9.07921 4.93354 9.55944 5.25146L22.8594 14.1181C23.2824 14.3967 23.6324 14.7715 23.8803 15.2119C24.142 15.6468 24.3015 16.1355 24.3469 16.641Z" fill="white"/>
</svg>
