<svg width="10" height="13" viewBox="0 0 10 13" fill="none" xmlns="http://www.w3.org/2000/svg">
<path d="M5.00286 1.21138L4.94 1.17285C4.22762 0.73463 3.60095 0.348418 3.06381 0.153866C2.7677 0.0387788 2.45115 -0.012717 2.13429 0.00265553C1.80074 0.0284038 1.48193 0.152278 1.21714 0.359012C0.665714 0.777008 0.427619 1.39245 0.297143 2.07337C0.170476 2.73312 0.121905 3.59222 0.0619048 4.63818L0.0590474 4.69211C0.022857 5.31814 0 5.93743 0 6.49894C0 7.06044 0.022857 7.68069 0.0590474 8.30672L0.0619048 8.35969C0.121905 9.40565 0.170476 10.2648 0.297143 10.9235C0.427619 11.6054 0.665714 12.2199 1.21714 12.6389C1.48952 12.8459 1.79524 12.9692 2.13429 12.9952C2.46 13.0193 2.77238 12.9499 3.06381 12.844C3.60095 12.6495 4.22762 12.2632 4.94 11.826L5.00286 11.7875C5.40857 11.537 5.80667 11.2799 6.1619 11.0266C6.59695 10.7136 7.02102 10.3853 7.43333 10.0423L7.48095 10.0028C8.20857 9.40276 8.82571 8.89326 9.25238 8.39244C9.71714 7.84346 10 7.25403 10 6.49894C10 5.74384 9.71714 5.15345 9.25143 4.60543C8.82572 4.10461 8.20857 3.59415 7.4819 2.99509L7.43429 2.9556C7.0019 2.59924 6.56762 2.25829 6.1619 1.97128C5.78356 1.7054 5.39702 1.45165 5.00286 1.21041" fill="black"/>
</svg>
